<svg xmlns="http://www.w3.org/2000/svg" width="20" height="20" viewBox="0 0 20 20"><path d="M10,1.846a8.156,8.156,0,0,1,3.174,15.667A8.156,8.156,0,0,1,6.826,2.486,8.106,8.106,0,0,1,10,1.846M10,0A10,10,0,1,0,20,10,10,10,0,0,0,10,0Z" fill="#db2a2a"/><path d="M10.443,6.724a3.718,3.718,0,1,1-2.63,1.089,3.7,3.7,0,0,1,2.63-1.089m0-1.846a5.565,5.565,0,1,0,5.565,5.565,5.566,5.566,0,0,0-5.565-5.565Z" transform="translate(-0.443 -0.443)" fill="#db2a2a"/><path d="M10.887,9.757a1.13,1.13,0,1,0,1.13,1.13,1.129,1.129,0,0,0-1.13-1.13Z" transform="translate(-0.887 -0.887)" fill="#db2a2a"/><path d="M18.377,2.958V0L14.683,3.695V6.652Z" transform="translate(-1.335 0)" fill="#fff"/><path d="M18.377,3.253h2.958L17.64,6.948H14.683Z" transform="translate(-1.335 -0.296)" fill="#fff"/><path d="M10.962,10.865a.41.41,0,0,1-.29-.7l4.934-4.934a.41.41,0,1,1,.58.58l-4.934,4.934A.408.408,0,0,1,10.962,10.865Z" transform="translate(-0.959 -0.465)" fill="#fff"/></svg>