<svg xmlns="http://www.w3.org/2000/svg" xmlns:xlink="http://www.w3.org/1999/xlink" width="13.503" height="19.791" viewBox="0 0 13.503 19.791"><defs><clipPath id="a"><rect width="13.503" height="19.791" fill="none"/></clipPath></defs><g transform="translate(6.752 9.895)"><g transform="translate(-6.752 -9.895)" clip-path="url(#a)"><path d="M6.752,0A6.752,6.752,0,0,0,0,6.752c0,.062,0,.124,0,.184.111,7.375,6.749,12.855,6.749,12.855s6.639-5.48,6.749-12.855c0-.062,0-.122,0-.184A6.752,6.752,0,0,0,6.752,0m0,10.4A3.647,3.647,0,1,1,10.4,6.752,3.647,3.647,0,0,1,6.752,10.4" fill="#ed4c4c"/><path d="M146.164,142.682a3.682,3.682,0,1,0-3.682,3.682,3.682,3.682,0,0,0,3.682-3.682" transform="translate(-135.73 -135.926)" fill="#fff"/></g></g></svg>