<svg xmlns="http://www.w3.org/2000/svg" width="20" height="20" viewBox="0 0 20 20"><g transform="translate(0)"><g transform="translate(4 4)"><path d="M594.682,609.021l1.4,4.3H600.6l-3.657,2.654,1.4,4.306-3.664-2.661-3.663,2.661,1.4-4.3-3.66-2.657h4.529Z" transform="translate(-588.757 -609.021)" fill="#fff"/></g><path d="M10,20A10,10,0,1,1,20,10,10.011,10.011,0,0,1,10,20ZM10,2a8,8,0,1,0,8,8A8.009,8.009,0,0,0,10,2Z" transform="translate(0)" fill="#f5f5f5"/><g transform="translate(20) rotate(90)"><path d="M10,20A10,10,0,1,1,20,10,10.011,10.011,0,0,1,10,20ZM10,2a8,8,0,1,0,8,8A8.009,8.009,0,0,0,10,2Z" fill="#00babc"/></g></g></svg>