<svg xmlns="http://www.w3.org/2000/svg" width="20" height="20" viewBox="0 0 20 20"><g transform="translate(0)"><g transform="translate(3 6)"><path d="M541.942,715.341h-.654a2.338,2.338,0,0,0-3.7-1.42,3.271,3.271,0,0,0-6.364.878,1.851,1.851,0,0,0,.144,3.7h10.572a1.577,1.577,0,1,0,0-3.154Z" transform="translate(-529.519 -711.702)" fill="#fff"/></g><path d="M10,20A10,10,0,1,1,20,10,10.011,10.011,0,0,1,10,20ZM10,2a8,8,0,1,0,8,8A8.009,8.009,0,0,0,10,2Z" transform="translate(0 0)" fill="#f5f5f5"/><g transform="translate(20 0) rotate(90)"><path d="M10,20A10,10,0,1,1,20,10,10.011,10.011,0,0,1,10,20ZM10,2a8,8,0,1,0,8,8A8.009,8.009,0,0,0,10,2Z" fill="#00babc"/></g></g></svg>