<svg xmlns="http://www.w3.org/2000/svg" xmlns:xlink="http://www.w3.org/1999/xlink" width="20" height="20" viewBox="0 0 20 20"><defs><clipPath id="a"><rect width="16.013" height="19.299" fill="none"/></clipPath></defs><g transform="translate(1.993 0.351)"><g transform="translate(8.007 9.649)"><g transform="translate(-8.007 -9.649)" clip-path="url(#a)"><path d="M52.376,56.658c0-2.069-2.31-2.058-2.31-2.058s-2.31-.021-2.31,2.058c0,2.646-.473,3.917-.756,4.242h6.132c-.294-.336-.756-1.6-.756-4.242" transform="translate(-42.065 -48.867)" fill="#ffe266"/><path d="M41.1,116.925h7.382a1.422,1.422,0,0,0-.431-.725H41.531a1.422,1.422,0,0,0-.431.725" transform="translate(-36.784 -103.999)" fill="#ffe266"/><path d="M76.3,54.6Z" transform="translate(-68.288 -48.867)" fill="#ffe266"/><path d="M64.576,127.239A1.386,1.386,0,0,0,65.951,126H63.2a1.386,1.386,0,0,0,1.376,1.239" transform="translate(-56.564 -112.77)" fill="#ffe266"/><path d="M71.959,45.88h0a3.171,3.171,0,0,1,.494.053v-.147a.5.5,0,1,0-1,0v.147a3.171,3.171,0,0,1,.494-.053Z" transform="translate(-63.947 -40.462)" fill="#ffe266"/></g></g></g><path d="M10,20A10,10,0,1,1,20,10,10.011,10.011,0,0,1,10,20ZM10,2a8,8,0,1,0,8,8A8.009,8.009,0,0,0,10,2Z" transform="translate(0)" fill="#f5f5f5"/><g transform="translate(20) rotate(90)"><path d="M10,20A10,10,0,1,1,20,10,10.011,10.011,0,0,1,10,20ZM10,2a8,8,0,1,0,8,8A8.009,8.009,0,0,0,10,2Z" fill="#00babc"/></g></svg>